# xmcd
#
# Track frame offsets:
#	150
#	18737
#	35552
#	63032
#	82234
#	101459
#	115228
#	140012
#	162414
#	179964
#	194380
#	209807
#	227791
#	247929
#	267291
#
# Disc length: 3644 seconds
#
# Revision: 0
# Processed by: cddbd v1.5.2PL0 Copyright (c) Steve Scherf et al.
# Submitted via: audiograbber 1.83.01
#
DISCID=e30e3a0f
DTITLE=Various Artist - Mustique Blues Festival 2005
DYEAR=2005
DGENRE=Blues
TTITLE0=Rock Me Baby
TTITLE1=Dust My Broom
TTITLE2=Smooth Sailing
TTITLE3=Having Fun Ain´t A Dying Art
TTITLE4=Mean Old Eastern
TTITLE5=Boogie Woogie Bugle Boy
TTITLE6=Wine Head
TTITLE7=Wang Dang Doodle
TTITLE8=My Sweet Jelly Roll
TTITLE9=Juke Joint
TTITLE10=Going Down
TTITLE11=Put The Shoe On The Other Foot
TTITLE12=Timeless
TTITLE13=634 - 5789
TTITLE14=Lining Track
EXTD=
EXTT0=
EXTT1=
EXTT2=
EXTT3=
EXTT4=
EXTT5=
EXTT6=
EXTT7=
EXTT8=
EXTT9=
EXTT10=
EXTT11=
EXTT12=
EXTT13=
EXTT14=
PLAYORDER=
